<?xml version="1.0" encoding="UTF-8"?>
<svg version="1.1" xmlns="http://www.w3.org/2000/svg" width="482" height="756">
<path d="M0 0 C1.49025717 -0.00374088 2.98051238 -0.00834415 4.47076452 -0.01373065 C8.54886358 -0.02592214 12.62688037 -0.02570473 16.70499349 -0.02334189 C21.11008409 -0.02293274 25.51514866 -0.03398229 29.92022705 -0.04345703 C38.54476862 -0.06004738 47.16928285 -0.06556571 55.79383905 -0.06668179 C62.8077067 -0.06763329 69.82156535 -0.0717487 76.83543015 -0.07808304 C96.73846171 -0.09569087 116.64147174 -0.10492274 136.54451115 -0.10342209 C137.61677407 -0.10334218 138.68903699 -0.10326227 139.79379272 -0.10317993 C140.8673711 -0.10309817 141.94094948 -0.10301641 143.04706053 -0.10293217 C160.43781482 -0.10211963 177.82848243 -0.12125051 195.21921165 -0.14945666 C213.09298132 -0.17821654 230.96670876 -0.19199522 248.84050214 -0.19026911 C258.86835159 -0.18960624 268.89611019 -0.19505354 278.92393875 -0.21662521 C287.46342909 -0.23487798 296.00278741 -0.23915087 304.54228885 -0.22560637 C308.89457481 -0.21909706 313.24660777 -0.21888531 317.59886932 -0.23631287 C321.59266179 -0.2521397 325.5860027 -0.24908314 329.5797848 -0.2317446 C331.01517227 -0.22869566 332.45059427 -0.23222651 333.88594098 -0.24346475 C353.40035012 -0.3859864 370.75066899 5.51835571 385.52572632 18.54476929 C400.21705828 33.09002266 407.51999367 50.61111311 407.67259733 71.06559882 C407.67713059 73.87641487 407.6670166 76.6869744 407.65667725 79.49777222 C407.66013747 81.54960488 407.66490447 83.60143568 407.67085898 85.65326262 C407.68334847 91.2696162 407.67720786 96.88581628 407.66790032 102.50217032 C407.6611018 108.56769571 407.67159506 114.63319503 407.67984009 120.69871521 C407.69240119 131.88675712 407.69132396 143.07475006 407.68310568 154.26279093 C407.67555025 164.5995817 407.67359299 174.93635462 407.67717361 185.27314758 C407.67751735 186.30281955 407.67751735 186.30281955 407.67786802 187.35329297 C407.67880208 190.14001513 407.67975729 192.92673728 407.68074732 195.71345942 C407.68991825 221.83935485 407.68161355 247.96521927 407.66545662 274.09110992 C407.65122048 297.28743096 407.65249439 320.48370259 407.6668396 343.68002319 C407.68291374 369.7590328 407.68926778 395.83801503 407.68000281 421.9170289 C407.6790407 424.69858709 407.67810218 427.48014529 407.67717361 430.26170349 C407.67681777 431.28899155 407.67681777 431.28899155 407.67645473 432.33703291 C407.67304654 442.66572092 407.67702524 452.99438908 407.68461227 463.32307434 C407.69319874 475.07071769 407.69073894 486.81831388 407.67477004 498.56595361 C407.66689261 504.55829577 407.66378686 510.55053772 407.6737175 516.5428791 C407.68267563 522.03145266 407.67771291 527.51983339 407.66178484 533.00838953 C407.65844181 534.99073267 407.66012032 536.97309219 407.66741221 538.95542473 C407.71272412 552.30039057 406.92540874 564.2533215 400.65072632 576.32992554 C400.30372681 577.00547485 399.95672729 577.68102417 399.59921265 578.37704468 C390.38153678 595.70265165 375.34184983 606.81114773 357.15853882 613.39633179 C346.67089389 616.47132116 335.92561324 616.4140321 325.07658386 616.40113831 C323.65558696 616.40300955 322.23459058 616.40531149 320.813595 616.40800363 C316.93159879 616.41408935 313.04962423 616.41399186 309.16762435 616.41280925 C304.97183331 616.41260443 300.77604907 616.41813182 296.58026123 616.42286682 C288.36828096 616.43115627 280.15630786 616.43392089 271.94432376 616.4344792 C265.26562792 616.43495518 258.58693445 616.43701403 251.90823936 616.44017982 C232.9518573 616.44898185 213.99548088 616.45359992 195.03909675 616.45284935 C194.01817816 616.45280939 192.99725957 616.45276944 191.94540405 616.45272827 C190.92323163 616.45268739 189.9010592 616.45264651 188.84791186 616.45260439 C172.28819726 616.45219808 155.72850542 616.46176508 139.16879741 616.47586664 C122.14476996 616.49024861 105.1207536 616.49713582 88.09671992 616.49627286 C78.54734281 616.49594152 68.99798956 616.49866122 59.44861794 616.50945091 C51.31724705 616.51857991 43.18591084 616.52071152 35.05453704 616.51394149 C30.91091476 616.51068834 26.76735891 616.51057577 22.62374306 616.51929474 C18.82069763 616.52721433 15.01777069 616.52567328 11.21472796 616.51701061 C9.2081649 616.51477338 7.20159799 616.52226116 5.19504958 616.53025025 C-18.46413708 616.44146493 -37.50009555 610.95972954 -55.03677368 594.51742554 C-72.29238248 576.39343383 -75.0358223 555.21373934 -74.98497009 531.43690491 C-74.98799394 529.42845942 -74.99188459 527.42001507 -74.99656266 525.41157275 C-75.00682124 519.91505774 -75.00466629 514.41860811 -75.00038207 508.92208779 C-74.99791096 502.9853439 -75.00693378 497.04861559 -75.01441956 491.11187744 C-75.02715787 479.48983892 -75.02896711 467.86782209 -75.02661929 456.24577793 C-75.024784 446.79729579 -75.02655119 437.34882042 -75.03084373 427.90033913 C-75.03144615 426.54110256 -75.03204734 425.18186599 -75.03264734 423.82262943 C-75.03355463 421.77418851 -75.0344633 419.72574759 -75.03537969 417.67730668 C-75.0438048 398.64096612 -75.04814797 379.60462811 -75.04397297 360.56828594 C-75.04381659 359.85120346 -75.04366022 359.13412099 -75.0434991 358.39530874 C-75.04269336 354.76115859 -75.04184759 351.12700845 -75.0409858 347.49285831 C-75.04072917 346.41029994 -75.04072917 346.41029994 -75.04046735 345.30587171 C-75.0401207 343.84640914 -75.03977217 342.38694656 -75.03942177 340.92748399 C-75.03406527 318.2212024 -75.04199475 295.51495965 -75.06045532 272.8086853 C-75.08118992 247.27570451 -75.09189527 221.74274778 -75.08787984 196.2097581 C-75.08748451 193.48515849 -75.08712296 190.76055887 -75.08678246 188.03595924 C-75.08669172 187.36513431 -75.08660099 186.69430937 -75.08650751 186.00315641 C-75.08534353 175.89443002 -75.09197463 165.78572799 -75.10259438 155.67700768 C-75.11451468 144.1750195 -75.11590571 132.67308848 -75.10380421 121.17109951 C-75.09792016 115.30597392 -75.09680311 109.44095287 -75.10880661 103.57583427 C-75.11968067 98.19998275 -75.11654382 92.82432284 -75.10254493 87.44848023 C-75.09990221 85.51049612 -75.10225104 83.57249692 -75.11028079 81.63452765 C-75.20127271 58.02265658 -70.52449636 37.84964062 -54.03677368 20.01742554 C-38.77452361 5.66544882 -20.58741573 -0.04914816 0 0 Z " fill="#E30613" transform="translate(74.72427368164063,-0.267425537109375)"/>
<path d="M0 0 C120.78 0 241.56 0 366 0 C366 130.68 366 261.36 366 396 C245.22 396 124.44 396 0 396 C0 265.32 0 134.64 0 0 Z " fill="#E30714" transform="translate(58,86)"/>
<path d="M0 0 C1.05058594 0.4640625 2.10117187 0.928125 3.18359375 1.40625 C29.38693898 13.67309562 49.47089767 38.04372427 59.30322266 64.97998047 C66.633003 86.22966601 68.13874068 110.22264239 62 132 C61.81195801 132.67498535 61.62391602 133.3499707 61.43017578 134.04541016 C58.10162036 145.59870155 52.65684097 155.05861603 46 165 C44.4481668 168.1036664 44.70283126 170.57632146 45 174 C46.64840794 176.64575046 46.64840794 176.64575046 49.11157227 178.89038086 C50.00993301 179.7849852 50.90829376 180.67958954 51.83387756 181.6013031 C52.8277796 182.55610215 53.82196305 183.51060834 54.81640625 184.46484375 C55.83256781 185.46538344 56.84710557 186.46757471 57.86009216 187.47132874 C60.53035659 190.10925099 63.22047884 192.72594512 65.91583252 195.3381958 C69.16513851 198.49404164 72.39227855 201.67251011 75.62097836 204.84941196 C78.13864817 207.32632248 80.65978139 209.79924618 83.1934967 212.25975037 C87.81357014 216.76603499 92.26009131 221.31393273 96.45280457 226.22053528 C98.80871879 228.93012591 101.33897142 231.4452003 103.8984375 233.9609375 C104.41886627 234.47757965 104.93929504 234.9942218 105.47549438 235.52651978 C107.10619488 237.14519441 108.74016119 238.76050585 110.375 240.375 C112.5523492 242.52577301 114.72636102 244.67984123 116.8984375 246.8359375 C117.39628754 247.3254892 117.89413757 247.81504089 118.40707397 248.31942749 C121.50194595 251.39197004 122.88790524 252.83421452 123.3125 257.25 C122.8678697 262.58556357 120.82880635 265.4324517 116.8125 268.875 C112.74294637 270.50282145 109.31387652 270.87149021 105 270 C101.93612468 268.42633641 99.54371768 266.30374432 97 264 C96.27554688 263.38125 95.55109375 262.7625 94.8046875 262.125 C84.78534279 253.39527391 75.1102335 243.90802585 66.53515625 233.75390625 C64.22348109 231.11283208 61.71141265 228.68688118 59.1875 226.25 C57.35733051 224.36753995 55.65369148 222.45158369 53.9453125 220.4609375 C49.61489585 215.47922619 45.00332812 210.78176194 40.34716797 206.10693359 C38.86350975 204.61343353 37.39085749 203.10958136 35.91796875 201.60546875 C34.96419961 200.64517941 34.00979511 199.6855206 33.0546875 198.7265625 C32.20374512 197.86627441 31.35280273 197.00598633 30.47607422 196.11962891 C27.98865521 193.99028836 26.15943428 192.82626357 23 192 C19.8333466 193.31515627 19.8333466 193.31515627 16.625 195.5 C6.53097225 201.71243486 -4.48409238 206.14650077 -16 209 C-17.03898438 209.2784375 -18.07796875 209.556875 -19.1484375 209.84375 C-49.65495743 216.86870555 -80.82437132 211.57731123 -107.21484375 195.16455078 C-111.82368675 192.15796146 -115.95015728 188.71286639 -120 185 C-120.92425781 184.15695312 -121.84851563 183.31390625 -122.80078125 182.4453125 C-133.83753643 171.91230963 -141.30884868 159.54996247 -148 146 C-148.41121094 145.17371094 -148.82242188 144.34742188 -149.24609375 143.49609375 C-160.57103272 118.15819528 -158.58723928 86.30350605 -148.89355469 60.83569336 C-137.35602911 32.13149416 -115.48670267 10.09664917 -87.29296875 -2.30859375 C-59.95088473 -13.58618924 -26.65358855 -12.04281742 0 0 Z " fill="#E30714" transform="translate(258,158)"/>
<path d="M0 0 C1.05058594 0.4640625 2.10117187 0.928125 3.18359375 1.40625 C29.38693898 13.67309562 49.47089767 38.04372427 59.30322266 64.97998047 C66.633003 86.22966601 68.13874068 110.22264239 62 132 C61.81195801 132.67498535 61.62391602 133.3499707 61.43017578 134.04541016 C58.10162036 145.59870155 52.65684097 155.05861603 46 165 C44.4481668 168.1036664 44.70283126 170.57632146 45 174 C46.64840794 176.64575046 46.64840794 176.64575046 49.11157227 178.89038086 C50.00993301 179.7849852 50.90829376 180.67958954 51.83387756 181.6013031 C52.8277796 182.55610215 53.82196305 183.51060834 54.81640625 184.46484375 C55.83256781 185.46538344 56.84710557 186.46757471 57.86009216 187.47132874 C60.53035659 190.10925099 63.22047884 192.72594512 65.91583252 195.3381958 C69.16513851 198.49404164 72.39227855 201.67251011 75.62097836 204.84941196 C78.13864817 207.32632248 80.65978139 209.79924618 83.1934967 212.25975037 C87.81357014 216.76603499 92.26009131 221.31393273 96.45280457 226.22053528 C98.80871879 228.93012591 101.33897142 231.4452003 103.8984375 233.9609375 C104.41886627 234.47757965 104.93929504 234.9942218 105.47549438 235.52651978 C107.10619488 237.14519441 108.74016119 238.76050585 110.375 240.375 C112.5523492 242.52577301 114.72636102 244.67984123 116.8984375 246.8359375 C117.39628754 247.3254892 117.89413757 247.81504089 118.40707397 248.31942749 C121.50194595 251.39197004 122.88790524 252.83421452 123.3125 257.25 C122.8678697 262.58556357 120.82880635 265.4324517 116.8125 268.875 C112.74294637 270.50282145 109.31387652 270.87149021 105 270 C101.93612468 268.42633641 99.54371768 266.30374432 97 264 C96.27554688 263.38125 95.55109375 262.7625 94.8046875 262.125 C84.78534279 253.39527391 75.1102335 243.90802585 66.53515625 233.75390625 C64.22348109 231.11283208 61.71141265 228.68688118 59.1875 226.25 C57.35733051 224.36753995 55.65369148 222.45158369 53.9453125 220.4609375 C49.61489585 215.47922619 45.00332812 210.78176194 40.34716797 206.10693359 C38.86350975 204.61343353 37.39085749 203.10958136 35.91796875 201.60546875 C34.96419961 200.64517941 34.00979511 199.6855206 33.0546875 198.7265625 C32.20374512 197.86627441 31.35280273 197.00598633 30.47607422 196.11962891 C27.98865521 193.99028836 26.15943428 192.82626357 23 192 C19.8333466 193.31515627 19.8333466 193.31515627 16.625 195.5 C6.53097225 201.71243486 -4.48409238 206.14650077 -16 209 C-17.03898438 209.2784375 -18.07796875 209.556875 -19.1484375 209.84375 C-49.65495743 216.86870555 -80.82437132 211.57731123 -107.21484375 195.16455078 C-111.82368675 192.15796146 -115.95015728 188.71286639 -120 185 C-120.92425781 184.15695312 -121.84851563 183.31390625 -122.80078125 182.4453125 C-133.83753643 171.91230963 -141.30884868 159.54996247 -148 146 C-148.41121094 145.17371094 -148.82242188 144.34742188 -149.24609375 143.49609375 C-160.57103272 118.15819528 -158.58723928 86.30350605 -148.89355469 60.83569336 C-137.35602911 32.13149416 -115.48670267 10.09664917 -87.29296875 -2.30859375 C-59.95088473 -13.58618924 -26.65358855 -12.04281742 0 0 Z M-107.74609375 41.7421875 C-124.34084937 60.3828719 -130.16967391 84.52903214 -129.20898438 108.99511719 C-127.52626522 133.19010238 -116.18301933 154.71205872 -98.03515625 170.61328125 C-78.89418614 185.66493214 -56.75540172 188.38202554 -33 187 C-27.4452864 186.31504198 -22.29274998 184.81994221 -17 183 C-15.86691406 182.63777344 -14.73382813 182.27554688 -13.56640625 181.90234375 C-5.52534473 179.10833533 1.19468624 175.0794705 8 170 C8.72960937 169.45601562 9.45921875 168.91203125 10.2109375 168.3515625 C25.96740577 155.58446371 34.76410413 135.04790611 37.6875 115.3671875 C38.69594796 104.50116068 38.61542724 93.6280078 36 83 C35.76667969 81.87722656 35.53335938 80.75445312 35.29296875 79.59765625 C31.96412993 65.11188731 25.0542317 51.97922102 15 41 C14.06414062 39.94425781 14.06414062 39.94425781 13.109375 38.8671875 C1.39904728 26.34760949 -16.73954891 17.69580672 -33.91210938 16.85791016 C-62.89235804 16.01286738 -86.64253427 20.66864731 -107.74609375 41.7421875 Z " fill="#FEFDFC" transform="translate(258,158)"/>
<path d="M0 0 C126.39 0 252.78 0 383 0 C383 135.96 383 271.92 383 412 C256.61 412 130.22 412 0 412 C0 276.04 0 140.08 0 0 Z M8 8 C8 138.68 8 269.36 8 404 C128.78 404 249.56 404 374 404 C374 273.32 374 142.64 374 8 C253.22 8 132.44 8 8 8 Z " fill="#FEF7F4" transform="translate(50,78)"/>
<path d="M0 0 C7.16343478 5.33344808 11.52957428 12.34653534 14.32421875 20.73046875 C15.25683008 33.72041224 14.58316199 44.55358576 6.07421875 55.10546875 C-1.95150584 63.4612556 -10.95403368 67.74881885 -22.48828125 68.23046875 C-32.70096116 67.98809663 -42.36112395 63.94672259 -49.67578125 56.73046875 C-57.00389033 47.8685694 -60.41675305 38.70200738 -60.06640625 27.203125 C-58.91910479 17.00361502 -54.15853819 8.58240069 -46.875 1.47265625 C-32.27080792 -10.09656163 -15.35443558 -9.76223926 0 0 Z " fill="#FEF9F8" transform="translate(263.67578125,525.26953125)"/>
<path d="M0 0 C42.87830338 0 42.87830338 0 51.2734375 7.91015625 C57.56262616 15.52263573 58.14481834 25.42662555 58.203125 34.91796875 C58.20882507 35.65646561 58.21452515 36.39496246 58.22039795 37.15583801 C58.22979025 38.71138096 58.23635878 40.26694329 58.24023438 41.82250977 C58.24990272 44.16394088 58.28096504 46.50447863 58.3125 48.84570312 C58.38856421 59.65176761 58.38355848 71.35068863 51 80 C46.01376735 84.98623265 43.31198802 85.56267066 36 88 C24.12 88 12.24 88 0 88 C0 58.96 0 29.92 0 0 Z M19 14 C19 33.8 19 53.6 19 74 C29.94772642 73.83562902 29.94772642 73.83562902 35 71 C42.38311495 58.42135972 41.32801339 37.98578866 38.40234375 24.1796875 C37.41643891 20.82868852 36.52635973 18.56145038 34.125 16 C28.96365596 13.57113222 24.89554019 14 19 14 Z " fill="#E30613" transform="translate(377,667)"/>
<path d="M0 0 C1.18335938 0.39638672 1.18335938 0.39638672 2.390625 0.80078125 C5.45773213 1.76059275 8.43566316 2.15333295 11.625 2.5 C7.73925476 7.27771441 3.66580791 11.43629034 -1.0625 15.375 C-1.6719043 15.8903833 -2.28130859 16.4057666 -2.90917969 16.93676758 C-6.61495574 20.06091307 -10.36270755 23.13164084 -14.125 26.1875 C-27.46223942 37.09448442 -38.22826653 49.32486835 -49.05078125 62.66796875 C-51.87048863 66.10374665 -54.73885636 69.49497082 -57.625 72.875 C-58.1207251 73.45838135 -58.6164502 74.0417627 -59.12719727 74.64282227 C-67.40117579 84.29788554 -67.40117579 84.29788554 -71.6875 85.1875 C-83.82985509 82.92367108 -91.97326337 68.90648886 -98.9375 59.75 C-99.58219238 58.92153564 -100.22688477 58.09307129 -100.89111328 57.23950195 C-101.7822583 56.04587036 -101.7822583 56.04587036 -102.69140625 54.828125 C-103.23224854 54.1155957 -103.77309082 53.40306641 -104.33032227 52.66894531 C-105.69842039 49.82851911 -105.35347575 48.45422689 -104.375 45.5 C-101.17432671 40.98140242 -97.37613108 37.02853607 -92.375 34.5 C-91.055 34.5 -89.735 34.5 -88.375 34.5 C-86.68334961 36.5637207 -86.68334961 36.5637207 -85.02734375 39.42578125 C-84.42212891 40.44994141 -83.81691406 41.47410156 -83.19335938 42.52929688 C-82.57267578 43.61275391 -81.95199219 44.69621094 -81.3125 45.8125 C-80.07531738 47.93575563 -78.83457778 50.05694371 -77.58984375 52.17578125 C-76.77181274 53.5975769 -76.77181274 53.5975769 -75.93725586 55.0480957 C-74.56826897 57.19667132 -73.25964642 58.80661633 -71.375 60.5 C-65.91037974 54.5410297 -60.90630622 48.39117878 -56.125 41.875 C-50.15074754 33.82238925 -44.03534811 25.91654713 -37.70654297 18.14013672 C-36.42306236 16.55920112 -35.1507549 14.96921466 -33.87890625 13.37890625 C-23.26670709 0.18971437 -17.51747148 -5.49779105 0 0 Z " fill="#FEFCFB" transform="translate(265.375,223.5)"/>
<path d="M0 0 C15.51 0 31.02 0 47 0 C47 4.62 47 9.24 47 14 C37.76 14 28.52 14 19 14 C19 20.93 19 27.86 19 35 C27.58 35 36.16 35 45 35 C45 39.62 45 44.24 45 49 C36.42 49 27.84 49 19 49 C19 57.25 19 65.5 19 74 C28.57 74 38.14 74 48 74 C48 78.62 48 83.24 48 88 C32.16 88 16.32 88 0 88 C0 58.96 0 29.92 0 0 Z " fill="#E30613" transform="translate(318,667)"/>
<path d="M0 0 C1.48831242 0.00667405 2.97660807 0.01863442 4.46484375 0.03515625 C5.22345703 0.03966797 5.98207031 0.04417969 6.76367188 0.04882812 C8.64326246 0.06064945 10.52281274 0.07858547 12.40234375 0.09765625 C15.44549187 9.73040249 18.48836953 19.36323412 21.53091717 28.99617004 C22.94422931 33.47079471 24.35762899 37.94539169 25.77124023 42.41992188 C27.13957273 46.75114229 28.50766027 51.08244001 29.87558937 55.41378784 C30.39330422 57.05291407 30.9111022 58.69201404 31.42899132 60.33108521 C32.62884255 64.12859041 33.82766479 67.92641177 35.02377319 71.72509766 C35.96797227 74.72373573 36.91797493 77.72046533 37.8710022 80.71630859 C38.33441096 82.18063852 38.79774223 83.64499297 39.26098633 85.109375 C39.47739871 85.78579544 39.69381109 86.46221588 39.91678143 87.15913391 C41.40234375 91.87103081 41.40234375 91.87103081 41.40234375 94.09765625 C36.78234375 94.09765625 32.16234375 94.09765625 27.40234375 94.09765625 C21.40234375 78.66908482 21.40234375 78.66908482 21.40234375 72.09765625 C9.85234375 72.09765625 -1.69765625 72.09765625 -13.59765625 72.09765625 C-14.58765625 77.04765625 -14.58765625 77.04765625 -15.59765625 82.09765625 C-16.80287504 86.1531735 -18.20327156 90.10042014 -19.59765625 94.09765625 C-23.88765625 94.09765625 -28.17765625 94.09765625 -32.59765625 94.09765625 C-30.12678456 83.66643671 -27.03966059 73.47656425 -23.87109375 63.2421875 C-23.31708188 61.44575226 -22.76326235 59.64925769 -22.20962524 57.85270691 C-21.05686965 54.11461871 -19.90182907 50.37724665 -18.74511719 46.64038086 C-17.2600399 41.84204458 -15.78076115 37.04194313 -14.30313683 32.24130726 C-13.16448514 28.54416289 -12.02284177 24.84794777 -10.8802681 21.15201378 C-10.33310122 19.38079038 -9.78687245 17.60927692 -9.24158859 15.83747292 C-8.48360183 13.3761275 -7.72160999 10.91605864 -6.95849609 8.45629883 C-6.73303604 7.72133682 -6.50757599 6.98637482 -6.27528381 6.22914124 C-4.37126978 0.11865553 -4.37126978 0.11865553 0 0 Z M3.40234375 14.09765625 C-2.27473934 32.26347718 -2.27473934 32.26347718 -7.59765625 50.53515625 C-7.80479248 51.26653809 -8.01192871 51.99791992 -8.2253418 52.75146484 C-9.01989616 55.63237411 -9.59765625 58.093167 -9.59765625 61.09765625 C-0.68765625 61.09765625 8.22234375 61.09765625 17.40234375 61.09765625 C15.92655972 54.28640276 15.92655972 54.28640276 14.16552734 47.58764648 C13.94545013 46.82753769 13.72537292 46.06742889 13.49862671 45.2842865 C13.26833771 44.49953445 13.03804871 43.71478241 12.80078125 42.90625 C12.55945465 42.07553482 12.31812805 41.24481964 12.06948853 40.38893127 C11.30809011 37.77022612 10.54278934 35.15268092 9.77734375 32.53515625 C9.25625046 30.74551838 8.73541477 28.95580548 8.21484375 27.16601562 C6.94698337 22.8090238 5.67562512 18.45306679 4.40234375 14.09765625 C4.07234375 14.09765625 3.74234375 14.09765625 3.40234375 14.09765625 Z " fill="#000000" transform="translate(80.59765625,660.90234375)"/>
<path d="M0 0 C3.96 0 7.92 0 12 0 C12 31.02 12 62.04 12 94 C8.04 94 4.08 94 0 94 C-0.33 93.01 -0.66 92.02 -1 91 C-2.0828125 91.99 -2.0828125 91.99 -3.1875 93 C-8.20045976 96.34197317 -14.25209649 95.69606322 -20 95 C-24.93947235 93.53291595 -28.00788859 90.23826966 -30.95703125 86.171875 C-34.7317442 78.31142406 -34.30174169 70.09556724 -34.25 61.5625 C-34.25773438 60.29083984 -34.26546875 59.01917969 -34.2734375 57.70898438 C-34.2539042 48.28904891 -34.20424868 39.62236267 -28 32 C-23.29799381 27.75672612 -19.95138182 26.82477077 -13.6875 26.6875 C-12.57761719 26.65011719 -11.46773437 26.61273437 -10.32421875 26.57421875 C-7 27 -7 27 -1 31 C-0.67 20.77 -0.34 10.54 0 0 Z M-18 39 C-23.73313469 45.47658357 -23.36093008 55.72388795 -23.1875 63.97265625 C-22.79430437 70.32112739 -22.3688827 76.46503204 -19.3125 82.125 C-16.27102553 84.59106038 -13.85957213 85.39059387 -10 86 C-6.73135928 85.3158659 -5.26990674 84.24677188 -2.8125 82 C2.87533714 72.58564888 2.21268107 58.34689992 0.46484375 47.7578125 C-0.73743701 43.3297402 -1.98996072 39.56196954 -6 37 C-11.09658373 35.61002262 -13.84950426 35.6565451 -18 39 Z " fill="#000000" transform="translate(227,661)"/>
<path d="M0 0 C5.87093485 3.42230193 10.61118392 8.33419785 13.0234375 14.80078125 C14.84026751 22.94673221 14.22925844 30.53070929 10.05078125 37.78125 C6.24876588 43.06767943 0.98497445 47.52001925 -5.5 48.9375 C-14.49680507 49.76691097 -21.32291532 49.01909802 -29.125 44.375 C-35.32477513 38.0120729 -38.12046451 32.25301448 -38.25 23.375 C-38.10800077 14.90668253 -35.66307782 10.13709605 -29.71875 4.140625 C-21.55070234 -3.3825768 -10.15459307 -4.68436463 0 0 Z " fill="#E30814" transform="translate(253.5,532.0625)"/>
<path d="M0 0 C3.96 0 7.92 0 12 0 C12.0093457 1.55428711 12.01869141 3.10857422 12.02832031 4.70996094 C12.06817025 10.47262307 12.133916 16.23474854 12.20751953 21.99707031 C12.23575799 24.49179189 12.25695812 26.98660342 12.27099609 29.48144531 C12.29238499 33.06622466 12.33901708 36.64991918 12.390625 40.234375 C12.39185364 41.35116638 12.39308228 42.46795776 12.39434814 43.61859131 C12.41406677 44.65936829 12.4337854 45.70014526 12.45410156 46.77246094 C12.46298401 47.68735291 12.47186646 48.60224487 12.48101807 49.54486084 C13.16458783 52.7786129 14.44018102 53.96706139 17 56 C20.81331821 57.03999587 23.04020671 57.37082923 26.75 55.9375 C30.11244362 53.04206244 31.74222472 50.06784789 32.29818726 45.60797119 C32.4426009 42.70715202 32.49350569 39.81842087 32.51171875 36.9140625 C32.52966995 35.85714203 32.54762115 34.80022156 32.56611633 33.71127319 C32.62011938 30.3492222 32.65408362 26.9873124 32.6875 23.625 C32.72068183 21.33982415 32.75517229 19.0546669 32.79101562 16.76953125 C32.87584046 11.17978951 32.94269985 5.59008892 33 0 C36.96 0 40.92 0 45 0 C45 21.78 45 43.56 45 66 C41.04 66 37.08 66 33 66 C32.67 64.68 32.34 63.36 32 62 C30.6078125 62.9590625 30.6078125 62.9590625 29.1875 63.9375 C23.33139398 67.72674507 17.79401658 67.48592966 11 67 C5.73013445 65.30611465 3.68548158 62.77418948 1 58 C-0.02612598 54.92162206 -0.12090219 52.83425704 -0.11352539 49.6105957 C-0.11344986 48.50968094 -0.11337433 47.40876617 -0.11329651 46.27449036 C-0.10813522 45.08691635 -0.10297394 43.89934235 -0.09765625 42.67578125 C-0.0962413 41.45924362 -0.09482635 40.24270599 -0.09336853 38.98930359 C-0.08776312 35.0970109 -0.07520967 31.20477536 -0.0625 27.3125 C-0.0574857 24.67643312 -0.05292267 22.04036534 -0.04882812 19.40429688 C-0.03779193 12.93617584 -0.02052362 6.46809761 0 0 Z " fill="#000000" transform="translate(132,689)"/>
<path d="M0 0 C0 5.61 0 11.22 0 17 C4.62 17 9.24 17 14 17 C14 19.97 14 22.94 14 26 C9.38 26 4.76 26 0 26 C0.11843265 31.89002522 0.24269379 37.77988808 0.37231445 43.66967773 C0.41557739 45.67257358 0.45725847 47.67550425 0.49731445 49.6784668 C0.55522662 52.56049079 0.61886047 55.44234088 0.68359375 58.32421875 C0.70030624 59.21711105 0.71701874 60.11000336 0.73423767 61.029953 C0.75418289 61.87044693 0.77412811 62.71094086 0.79467773 63.5769043 C0.81799416 64.67943794 0.81799416 64.67943794 0.84178162 65.804245 C0.9891213 68.48785602 0.9891213 68.48785602 2 73 C5.96 73.33 9.92 73.66 14 74 C14 76.97 14 79.94 14 83 C7.55741357 84.61064661 0.19204554 85.19702396 -6.125 82.75 C-9.1984976 80.87917538 -9.77474899 80.24717282 -11 77 C-11.24050903 74.58282471 -11.24050903 74.58282471 -11.22705078 71.86425781 C-11.22682419 70.33312347 -11.22682419 70.33312347 -11.22659302 68.77105713 C-11.21627045 67.67613953 -11.20594788 66.58122192 -11.1953125 65.453125 C-11.1924826 64.3267865 -11.18965271 63.200448 -11.18673706 62.03997803 C-11.17554374 58.44321054 -11.15044037 54.84669221 -11.125 51.25 C-11.11496912 48.81120151 -11.10584346 46.37239912 -11.09765625 43.93359375 C-11.07560712 37.95563319 -11.04108277 31.97785884 -11 26 C-14.63 26 -18.26 26 -22 26 C-22 23.03 -22 20.06 -22 17 C-18.37 17 -14.74 17 -11 17 C-11 12.71 -11 8.42 -11 4 C-3.375 0 -3.375 0 0 0 Z " fill="#000000" transform="translate(298,672)"/>
<path d="M0 0 C3.63 0 7.26 0 11 0 C11 21.78 11 43.56 11 66 C7.37 66 3.74 66 0 66 C0 44.22 0 22.44 0 0 Z " fill="#000000" transform="translate(257,689)"/>
<path d="M0 0 C4.29 0 8.58 0 13 0 C13 3.96 13 7.92 13 12 C8.71 12 4.42 12 0 12 C0 8.04 0 4.08 0 0 Z " fill="#000000" transform="translate(256,661)"/>
</svg>
